{"title":"Prussia and Berlin up to 1945","uid":8921612,"size":555410634,"categoryP":"video","categoryS":"movies","magnet":"?xt=urn:btih:d1555a79ad0b79094f4f5d63849c27384f8a1d73&amp;dn=Prussia+and+Berlin+up+to+1945&amp;tr=udp%3A%2F%2Ftracker.openbittorrent.com%3A80&amp;tr=udp%3A%2F%2Fopen.demonii.com%3A1337&amp;tr=udp%3A%2F%2Ftracker.coppersurfer.tk%3A6969&amp;tr=udp%3A%2F%2Fexodus.desync.com%3A6969","seeders":1,"leechers":0,"uploader":null,"files":8,"time":1379266677,"description":"    Germany at War\n\nComplete name     Germany_at_War _Prussia &amp; Berlin up to 1945_.mp4\nFormat                                   : MPEG-4\nFormat profile                           : Base Media\nCodec ID                                 : isom\nFile size                                : 250 MiB\nDuration                                 : 26mn 12s\nOverall bit rate                         : 1 332 Kbps\nMovie name                          :Prussia_Berlin_up_to_1945\nGenre                                    : Documentary_War\nWriting application                      : Lavf54.46.100\n\nID                                       : 1\nFormat                                   : MPEG-4 Visual\nFormat settings, BVOP                    : No\nFormat settings, QPel                    : No\nFormat settings, GMC                     : No warppoints\nFormat settings, Matrix                  : Default (H.263)\nCodec ID                                 : 20\nDuration                                 : 26mn 12s\nBit rate mode                            : Constant\nBit rate                                 : 1 199 Kbps\nWidth                                    : 720 pixels\nHeight                                   : 406 pixels\nDisplay aspect ratio                     : 16:9\nFrame rate mode                          : Constant\nFrame rate                               : 23.976 fps\nColor space                              : YUV\nChroma subsampling                       : 4:2:0\nBit depth                                : 8 bits\nScan type                                : Progressive\nCompression mode                         : Lossy\nBits/(Pixel*Frame)                       : 0.171\nStream size                              : 225 MiB (90%)\nWriting library                          : Lavc54.79.100\n\nID                                       : 1\nFormat                                   : MPEG-4 Visual\nFormat settings, BVOP                    : No\nFormat settings, QPel                    : No\nFormat settings, GMC                     : No warppoints\nFormat settings, Matrix                  : Default (H.263)\nCodec ID                                 : 20\nDuration                                 : 26mn 12s\nBit rate mode                            : Constant\nBit rate                                 : 1 199 Kbps\nWidth                                    : 720 pixels\nHeight                                   : 406 pixels\nDisplay aspect ratio                     : 16:9\nFrame rate mode                          : Constant\nFrame rate                               : 23.976 fps\nColor space                              : YUV\nChroma subsampling                       : 4:2:0\nBit depth                                : 8 bits\nScan type                                : Progressive\nCompression mode                         : Lossy\nBits/(Pixel*Frame)                       : 0.171\nStream size                              : 225 MiB (90%)\nWriting library                          : Lavc54.79.100\n\nComplete name                    Germany_at_War_Front Lines &amp; German Home Front_.mp4\nFormat                                   : MPEG-4\nFormat profile                           : Base Media\nCodec ID                                 : isom\nFile size                                : 277 MiB\nDuration                                 : 29mn 8s\nOverall bit rate                         : 1 328 Kbps\nMovie name                               :Front_Lines_German_Home_Front\nGenre                                    : Documentary_War\nWriting application                      : Lavf54.46.100\n\nID                                       : 1\nFormat                                   : MPEG-4 Visual\nFormat settings, BVOP                    : No\nFormat settings, QPel                    : No\nFormat settings, GMC                     : No warppoints\nFormat settings, Matrix                  : Default (H.263)\nCodec ID                                 : 20\nDuration                                 : 29mn 8s\nBit rate mode                            : Constant\nBit rate                                 : 1 196 Kbps\nWidth                                    : 720 pixels\nHeight                                   : 406 pixels\nDisplay aspect ratio                     : 16:9\nFrame rate mode                          : Constant\nFrame rate                               : 23.976 fps\nColor space                              : YUV\nChroma subsampling                       : 4:2:0\nBit depth                                : 8 bits\nScan type                                : Progressive\nCompression mode                         : Lossy\nBits/(Pixel*Frame)                       : 0.171\nStream size                              : 249 MiB (90%)\nWriting library                          : Lavc54.79.100\n\nID                                       : 2\nFormat                                   : AAC\nFormat/Info                              : Advanced Audio Codec\nFormat profile                           : LC\nCodec ID                                 : 40\nDuration                                 : 29mn 8s\nBit rate mode                            : Constant\nBit rate                                 : 128 Kbps\nChannel(s)                               : 2 channels\nChannel positions                        : Front: L R\nSampling rate                            : 44.1 KHz\nCompression mode                         : Lossy\nStream size                              : 26.7 MiB (10%)","torrent":{"xt":"urn:btih:d1555a79ad0b79094f4f5d63849c27384f8a1d73","amp;dn":"Prussia+and+Berlin+up+to+1945","amp;tr":["udp%3A%2F%2Ftracker.openbittorrent.com%3A80","udp%3A%2F%2Fopen.demonii.com%3A1337","udp%3A%2F%2Ftracker.coppersurfer.tk%3A6969","udp%3A%2F%2Fexodus.desync.com%3A6969"],"infoHash":"d1555a79ad0b79094f4f5d63849c27384f8a1d73","infoHashBuffer":{"type":"Buffer","data":[209,85,90,121,173,11,121,9,79,79,93,99,132,156,39,56,79,138,29,115]},"announce":[],"urlList":[]}}